<?xml version="1.0" encoding="UTF-8" standalone="no"?>
<!DOCTYPE svg PUBLIC "-//W3C//DTD SVG 1.1//EN"
 "http://www.w3.org/Graphics/SVG/1.1/DTD/svg11.dtd">
<!-- Generated by graphviz version 2.43.0 (0)
 -->
<!-- Title: G Pages: 1 -->
<svg width="639pt" height="576pt"
 viewBox="0.00 0.00 638.55 576.41" xmlns="http://www.w3.org/2000/svg" xmlns:xlink="http://www.w3.org/1999/xlink">
<g id="graph0" class="graph" transform="scale(1 1) rotate(0) translate(4 572.41)">
<title>G</title><style>.edge>path:hover{stroke-width:8}</style>
<polygon fill="white" stroke="transparent" points="-4,4 -4,-572.41 634.55,-572.41 634.55,4 -4,4"/>
<!-- pelican -->
<g id="node1" class="node">
<title>pelican</title><style>.edge>path:hover{stroke-width:8}</style>
<polygon fill="blue" stroke="black" points="372.05,-36 318.05,-36 318.05,0 372.05,0 372.05,-36"/>
<text text-anchor="middle" x="345.05" y="-15.5" font-family="Helvetica,sans-Serif" font-size="10.00" fill="white">pelican</text>
</g>
<!-- pelican_cache -->
<g id="node2" class="node">
<title>pelican_cache</title><style>.edge>path:hover{stroke-width:8}</style>
<polygon fill="blue" stroke="black" points="480.55,-273.98 397.55,-273.98 397.55,-237.98 480.55,-237.98 480.55,-273.98"/>
<text text-anchor="middle" x="439.05" y="-253.48" font-family="Helvetica,sans-Serif" font-size="10.00" fill="white">pelican.cache</text>
</g>
<!-- pelican_generators -->
<g id="node4" class="node">
<title>pelican_generators</title><style>.edge>path:hover{stroke-width:8}</style>
<polygon fill="blue" stroke="black" points="379.55,-108 310.55,-108 310.55,-72 379.55,-72 379.55,-108"/>
<text text-anchor="middle" x="345.05" y="-93" font-family="Helvetica,sans-Serif" font-size="10.00" fill="white">pelican.</text>
<text text-anchor="middle" x="345.05" y="-82" font-family="Helvetica,sans-Serif" font-size="10.00" fill="white">generators</text>
</g>
<!-- pelican_cache&#45;&gt;pelican_generators -->
<g id="edge1" class="edge">
<title>pelican_cache&#45;&gt;pelican_generators</title><style>.edge>path:hover{stroke-width:8}</style>
<path fill="none" stroke="black" d="M429.17,-237.74C412.62,-208.88 379.23,-150.63 359.86,-116.84"/>
<polygon fill="blue" stroke="black" points="362.81,-114.94 354.8,-108.01 356.74,-118.42 362.81,-114.94"/>
</g>
<!-- pelican_readers -->
<g id="node7" class="node">
<title>pelican_readers</title><style>.edge>path:hover{stroke-width:8}</style>
<polygon fill="blue" stroke="black" points="322.55,-190.99 267.55,-190.99 267.55,-154.99 322.55,-154.99 322.55,-190.99"/>
<text text-anchor="middle" x="295.05" y="-175.99" font-family="Helvetica,sans-Serif" font-size="10.00" fill="white">pelican.</text>
<text text-anchor="middle" x="295.05" y="-164.99" font-family="Helvetica,sans-Serif" font-size="10.00" fill="white">readers</text>
</g>
<!-- pelican_cache&#45;&gt;pelican_readers -->
<g id="edge2" class="edge">
<title>pelican_cache&#45;&gt;pelican_readers</title><style>.edge>path:hover{stroke-width:8}</style>
<path fill="none" stroke="black" d="M408.51,-237.81C385.96,-225.12 355.19,-207.81 331.38,-194.42"/>
<polygon fill="blue" stroke="black" points="333.05,-191.35 322.62,-189.5 329.62,-197.45 333.05,-191.35"/>
</g>
<!-- pelican_contents -->
<g id="node3" class="node">
<title>pelican_contents</title><style>.edge>path:hover{stroke-width:8}</style>
<polygon fill="blue" stroke="black" points="327.55,-417.98 268.55,-417.98 268.55,-381.98 327.55,-381.98 327.55,-417.98"/>
<text text-anchor="middle" x="298.05" y="-402.98" font-family="Helvetica,sans-Serif" font-size="10.00" fill="white">pelican.</text>
<text text-anchor="middle" x="298.05" y="-391.98" font-family="Helvetica,sans-Serif" font-size="10.00" fill="white">contents</text>
</g>
<!-- pelican_contents&#45;&gt;pelican_generators -->
<g id="edge3" class="edge">
<title>pelican_contents&#45;&gt;pelican_generators</title><style>.edge>path:hover{stroke-width:8}</style>
<path fill="none" stroke="black" d="M283.81,-381.84C263.96,-355.91 231.22,-304.66 239.05,-256.98"/>
<path fill="none" stroke="black" d="M239.05,-254.98C242.38,-205.05 229.93,-185.4 258.05,-144 268.52,-128.59 285.1,-116.89 300.99,-108.45"/>
<polygon fill="blue" stroke="black" points="302.82,-111.45 310.22,-103.86 299.7,-105.18 302.82,-111.45"/>
</g>
<!-- pelican_contents&#45;&gt;pelican_readers -->
<g id="edge4" class="edge">
<title>pelican_contents&#45;&gt;pelican_readers</title><style>.edge>path:hover{stroke-width:8}</style>
<path fill="none" stroke="black" d="M239.05,-254.98C242.55,-233.63 256.28,-213.6 269.27,-198.8"/>
<polygon fill="blue" stroke="black" points="272.12,-200.86 276.33,-191.13 266.98,-196.11 272.12,-200.86"/>
</g>
<!-- pelican_utils -->
<g id="node13" class="node">
<title>pelican_utils</title><style>.edge>path:hover{stroke-width:8}</style>
<polygon fill="blue" stroke="black" points="477.05,-345.98 401.05,-345.98 401.05,-309.98 477.05,-309.98 477.05,-345.98"/>
<text text-anchor="middle" x="439.05" y="-325.48" font-family="Helvetica,sans-Serif" font-size="10.00" fill="white">pelican.utils</text>
</g>
<!-- pelican_contents&#45;&gt;pelican_utils -->
<g id="edge5" class="edge">
<title>pelican_contents&#45;&gt;pelican_utils</title><style>.edge>path:hover{stroke-width:8}</style>
<path fill="none" stroke="black" d="M336.68,-379.81C354.92,-370.75 376.77,-359.9 395.59,-350.56"/>
<polygon fill="blue" stroke="black" points="335.01,-376.73 327.61,-384.31 338.12,-383 335.01,-376.73"/>
<polygon fill="blue" stroke="black" points="397.16,-353.69 404.56,-346.1 394.05,-347.42 397.16,-353.69"/>
</g>
<!-- pelican_generators&#45;&gt;pelican -->
<g id="edge6" class="edge">
<title>pelican_generators&#45;&gt;pelican</title><style>.edge>path:hover{stroke-width:8}</style>
<path fill="none" stroke="black" d="M345.05,-71.7C345.05,-63.98 345.05,-54.71 345.05,-46.11"/>
<polygon fill="blue" stroke="black" points="348.55,-46.1 345.05,-36.1 341.55,-46.1 348.55,-46.1"/>
</g>
<!-- pelican_log -->
<g id="node5" class="node">
<title>pelican_log</title><style>.edge>path:hover{stroke-width:8}</style>
<ellipse fill="#e72222" stroke="black" cx="193.05" cy="-547.2" rx="41.41" ry="18"/>
<text text-anchor="middle" x="193.05" y="-544.7" font-family="Helvetica,sans-Serif" font-size="10.00" fill="#ffffff">pelican.log</text>
</g>
<!-- pelican_log&#45;&gt;pelican -->
<g id="edge7" class="edge">
<title>pelican_log&#45;&gt;pelican</title><style>.edge>path:hover{stroke-width:8}</style>
<path fill="none" stroke="black" d="M170.96,-531.77C138.48,-508.71 80.93,-460.07 74.05,-400.98"/>
<path fill="none" stroke="black" d="M74.05,-398.98C61.28,-362.48 22.14,-380.67 5.05,-345.98 -2.02,-331.63 -1,-324.79 5.05,-309.98 17.53,-279.44 49.56,-289.12 57.05,-256.98"/>
<path fill="none" stroke="black" d="M57.05,-254.98C65.98,-205.74 45.66,-183.76 76.05,-144 133.88,-68.35 248.5,-36.77 307.71,-25.07"/>
<polygon fill="#e72222" stroke="black" points="308.57,-28.46 317.75,-23.17 307.27,-21.59 308.57,-28.46"/>
</g>
<!-- pelican_server -->
<g id="node9" class="node">
<title>pelican_server</title><style>.edge>path:hover{stroke-width:8}</style>
<polygon fill="blue" stroke="black" points="100.05,-345.98 14.05,-345.98 14.05,-309.98 100.05,-309.98 100.05,-345.98"/>
<text text-anchor="middle" x="57.05" y="-325.48" font-family="Helvetica,sans-Serif" font-size="10.00" fill="white">pelican.server</text>
</g>
<!-- pelican_log&#45;&gt;pelican_server -->
<g id="edge8" class="edge">
<title>pelican_log&#45;&gt;pelican_server</title><style>.edge>path:hover{stroke-width:8}</style>
<path fill="none" stroke="black" d="M74.05,-398.98C72.36,-384.48 68.67,-368.64 65.17,-355.7"/>
<polygon fill="#e72222" stroke="black" points="68.52,-354.7 62.43,-346.03 61.78,-356.61 68.52,-354.7"/>
</g>
<!-- pelican_settings -->
<g id="node10" class="node">
<title>pelican_settings</title><style>.edge>path:hover{stroke-width:8}</style>
<polygon fill="blue" stroke="black" points="279.05,-489.98 223.05,-489.98 223.05,-453.98 279.05,-453.98 279.05,-489.98"/>
<text text-anchor="middle" x="251.05" y="-474.98" font-family="Helvetica,sans-Serif" font-size="10.00" fill="white">pelican.</text>
<text text-anchor="middle" x="251.05" y="-463.98" font-family="Helvetica,sans-Serif" font-size="10.00" fill="white">settings</text>
</g>
<!-- pelican_log&#45;&gt;pelican_settings -->
<g id="edge9" class="edge">
<title>pelican_log&#45;&gt;pelican_settings</title><style>.edge>path:hover{stroke-width:8}</style>
<path fill="none" stroke="black" d="M205.92,-529.95C213.3,-520.64 222.71,-508.76 231.03,-498.26"/>
<polygon fill="#e72222" stroke="black" points="233.94,-500.22 237.41,-490.21 228.45,-495.87 233.94,-500.22"/>
</g>
<!-- pelican_tools_pelican_import -->
<g id="node11" class="node">
<title>pelican_tools_pelican_import</title><style>.edge>path:hover{stroke-width:8}</style>
<ellipse fill="#9d4343" stroke="black" cx="148.05" cy="-172.99" rx="62.87" ry="28.98"/>
<text text-anchor="middle" x="148.05" y="-181.49" font-family="Helvetica,sans-Serif" font-size="10.00" fill="#ffffff">pelican.</text>
<text text-anchor="middle" x="148.05" y="-170.49" font-family="Helvetica,sans-Serif" font-size="10.00" fill="#ffffff">tools.</text>
<text text-anchor="middle" x="148.05" y="-159.49" font-family="Helvetica,sans-Serif" font-size="10.00" fill="#ffffff">pelican_import</text>
</g>
<!-- pelican_log&#45;&gt;pelican_tools_pelican_import -->
<g id="edge10" class="edge">
<title>pelican_log&#45;&gt;pelican_tools_pelican_import</title><style>.edge>path:hover{stroke-width:8}</style>
<path fill="none" stroke="black" d="M74.05,-398.98C69.5,-359.95 122.99,-367.95 128.05,-328.98"/>
<path fill="none" stroke="black" d="M128.05,-326.98C133.13,-287.84 138.99,-243.08 143.04,-212.13"/>
<polygon fill="#e72222" stroke="black" points="146.52,-212.56 144.35,-202.19 139.58,-211.65 146.52,-212.56"/>
</g>
<!-- pelican_paginator -->
<g id="node6" class="node">
<title>pelican_paginator</title><style>.edge>path:hover{stroke-width:8}</style>
<ellipse fill="#ce3b3b" stroke="black" cx="309.05" cy="-547.2" rx="44.6" ry="21.43"/>
<text text-anchor="middle" x="309.05" y="-550.2" font-family="Helvetica,sans-Serif" font-size="10.00" fill="#ffffff">pelican.</text>
<text text-anchor="middle" x="309.05" y="-539.2" font-family="Helvetica,sans-Serif" font-size="10.00" fill="#ffffff">paginator</text>
</g>
<!-- pelican_paginator&#45;&gt;pelican_settings -->
<g id="edge11" class="edge">
<title>pelican_paginator&#45;&gt;pelican_settings</title><style>.edge>path:hover{stroke-width:8}</style>
<path fill="none" stroke="black" d="M293.81,-526.96C286.85,-518.18 278.52,-507.66 271.07,-498.25"/>
<polygon fill="#ce3b3b" stroke="black" points="273.75,-496 264.8,-490.34 268.27,-500.35 273.75,-496"/>
</g>
<!-- pelican_writers -->
<g id="node14" class="node">
<title>pelican_writers</title><style>.edge>path:hover{stroke-width:8}</style>
<polygon fill="blue" stroke="black" points="630.55,-273.98 575.55,-273.98 575.55,-237.98 630.55,-237.98 630.55,-273.98"/>
<text text-anchor="middle" x="603.05" y="-258.98" font-family="Helvetica,sans-Serif" font-size="10.00" fill="white">pelican.</text>
<text text-anchor="middle" x="603.05" y="-247.98" font-family="Helvetica,sans-Serif" font-size="10.00" fill="white">writers</text>
</g>
<!-- pelican_paginator&#45;&gt;pelican_writers -->
<g id="edge12" class="edge">
<title>pelican_paginator&#45;&gt;pelican_writers</title><style>.edge>path:hover{stroke-width:8}</style>
<path fill="none" stroke="black" d="M348.31,-537.08C404.14,-522.04 505.81,-486.62 561.05,-417.98 592.43,-378.99 600.57,-319.04 602.56,-284.35"/>
<polygon fill="#ce3b3b" stroke="black" points="606.07,-284.18 603.01,-274.04 599.07,-283.88 606.07,-284.18"/>
</g>
<!-- pelican_readers&#45;&gt;pelican_generators -->
<g id="edge13" class="edge">
<title>pelican_readers&#45;&gt;pelican_generators</title><style>.edge>path:hover{stroke-width:8}</style>
<path fill="none" stroke="black" d="M305.65,-154.82C312.48,-143.76 321.48,-129.17 329.16,-116.74"/>
<polygon fill="blue" stroke="black" points="332.19,-118.5 334.46,-108.15 326.23,-114.82 332.19,-118.5"/>
</g>
<!-- pelican_rstdirectives -->
<g id="node8" class="node">
<title>pelican_rstdirectives</title><style>.edge>path:hover{stroke-width:8}</style>
<polygon fill="blue" stroke="black" points="242.55,-417.98 165.55,-417.98 165.55,-381.98 242.55,-381.98 242.55,-417.98"/>
<text text-anchor="middle" x="204.05" y="-402.98" font-family="Helvetica,sans-Serif" font-size="10.00" fill="white">pelican.</text>
<text text-anchor="middle" x="204.05" y="-391.98" font-family="Helvetica,sans-Serif" font-size="10.00" fill="white">rstdirectives</text>
</g>
<!-- pelican_rstdirectives&#45;&gt;pelican_readers -->
<g id="edge14" class="edge">
<title>pelican_rstdirectives&#45;&gt;pelican_readers</title><style>.edge>path:hover{stroke-width:8}</style>
<path fill="none" stroke="black" d="M202.59,-381.87C200.73,-351.16 200.32,-285.49 225.05,-237.98 233.3,-222.14 247.13,-208.23 260.32,-197.46"/>
<polygon fill="blue" stroke="black" points="262.66,-200.08 268.4,-191.18 258.36,-194.56 262.66,-200.08"/>
</g>
<!-- pelican_server&#45;&gt;pelican -->
<g id="edge15" class="edge">
<title>pelican_server&#45;&gt;pelican</title><style>.edge>path:hover{stroke-width:8}</style>
<path fill="none" stroke="black" d="M54.9,-309.76C53.61,-295.44 52.94,-274.62 57.05,-256.98"/>
</g>
<!-- pelican_settings&#45;&gt;pelican -->
<g id="edge16" class="edge">
<title>pelican_settings&#45;&gt;pelican</title><style>.edge>path:hover{stroke-width:8}</style>
<path fill="none" stroke="black" d="M547.05,-398.98C563.93,-351.92 565.47,-220.47 547.05,-173.99"/>
<path fill="none" stroke="black" d="M547.05,-171.99C531.23,-135.51 534.39,-121.64 509.05,-91"/>
</g>
<!-- pelican_settings&#45;&gt;pelican_contents -->
<g id="edge17" class="edge">
<title>pelican_settings&#45;&gt;pelican_contents</title><style>.edge>path:hover{stroke-width:8}</style>
<path fill="none" stroke="black" d="M262.67,-453.68C268.19,-445.46 274.9,-435.47 280.98,-426.4"/>
<polygon fill="blue" stroke="black" points="283.9,-428.34 286.57,-418.09 278.09,-424.44 283.9,-428.34"/>
</g>
<!-- pelican_settings&#45;&gt;pelican_rstdirectives -->
<g id="edge18" class="edge">
<title>pelican_settings&#45;&gt;pelican_rstdirectives</title><style>.edge>path:hover{stroke-width:8}</style>
<path fill="none" stroke="black" d="M239.43,-453.68C233.91,-445.46 227.2,-435.47 221.12,-426.4"/>
<polygon fill="blue" stroke="black" points="224.01,-424.44 215.53,-418.09 218.2,-428.34 224.01,-424.44"/>
</g>
<!-- pelican_settings&#45;&gt;pelican_tools_pelican_import -->
<g id="edge19" class="edge">
<title>pelican_settings&#45;&gt;pelican_tools_pelican_import</title><style>.edge>path:hover{stroke-width:8}</style>
<path fill="none" stroke="black" d="M222.71,-461.71C201.52,-453.4 173.34,-439.22 156.05,-417.98 129.87,-385.83 120.65,-369.78 128.05,-328.98"/>
</g>
<!-- pelican_settings&#45;&gt;pelican_utils -->
<g id="edge20" class="edge">
<title>pelican_settings&#45;&gt;pelican_utils</title><style>.edge>path:hover{stroke-width:8}</style>
<path fill="none" stroke="black" d="M279.18,-469.83C349.52,-466.21 528.76,-451.99 547.05,-400.98"/>
<path fill="none" stroke="black" d="M547.05,-398.98C558.14,-368.07 520.89,-349.58 487.15,-339.43"/>
<polygon fill="blue" stroke="black" points="487.89,-336.01 477.31,-336.67 486,-342.74 487.89,-336.01"/>
</g>
<!-- pelican_urlwrappers -->
<g id="node12" class="node">
<title>pelican_urlwrappers</title><style>.edge>path:hover{stroke-width:8}</style>
<polygon fill="blue" stroke="black" points="341.05,-273.98 267.05,-273.98 267.05,-237.98 341.05,-237.98 341.05,-273.98"/>
<text text-anchor="middle" x="304.05" y="-258.98" font-family="Helvetica,sans-Serif" font-size="10.00" fill="white">pelican.</text>
<text text-anchor="middle" x="304.05" y="-247.98" font-family="Helvetica,sans-Serif" font-size="10.00" fill="white">urlwrappers</text>
</g>
<!-- pelican_urlwrappers&#45;&gt;pelican_contents -->
<g id="edge21" class="edge">
<title>pelican_urlwrappers&#45;&gt;pelican_contents</title><style>.edge>path:hover{stroke-width:8}</style>
<path fill="none" stroke="black" d="M303.32,-274.17C302.3,-298.41 300.42,-342.87 299.2,-371.66"/>
<polygon fill="blue" stroke="black" points="295.7,-371.72 298.77,-381.85 302.69,-372.01 295.7,-371.72"/>
</g>
<!-- pelican_utils&#45;&gt;pelican -->
<g id="edge22" class="edge">
<title>pelican_utils&#45;&gt;pelican</title><style>.edge>path:hover{stroke-width:8}</style>
<path fill="none" stroke="black" d="M509.05,-171.99C497.6,-137.87 531.99,-118.74 509.05,-91"/>
<path fill="none" stroke="black" d="M509.05,-89C477.13,-50.41 420.05,-32.64 382.36,-24.78"/>
<polygon fill="blue" stroke="black" points="382.77,-21.3 372.29,-22.82 381.43,-28.17 382.77,-21.3"/>
</g>
<!-- pelican_utils&#45;&gt;pelican_cache -->
<g id="edge23" class="edge">
<title>pelican_utils&#45;&gt;pelican_cache</title><style>.edge>path:hover{stroke-width:8}</style>
<path fill="none" stroke="black" d="M439.05,-309.68C439.05,-301.97 439.05,-292.7 439.05,-284.1"/>
<polygon fill="blue" stroke="black" points="442.55,-284.09 439.05,-274.09 435.55,-284.09 442.55,-284.09"/>
</g>
<!-- pelican_utils&#45;&gt;pelican_generators -->
<g id="edge25" class="edge">
<title>pelican_utils&#45;&gt;pelican_generators</title><style>.edge>path:hover{stroke-width:8}</style>
<path fill="none" stroke="black" d="M459.98,-309.89C470.28,-300.37 481.97,-287.69 489.05,-273.98 509.85,-233.72 526.27,-215.91 509.05,-173.99"/>
<path fill="none" stroke="black" d="M509.05,-171.99C492.82,-123.64 432.39,-104.08 389.62,-96.21"/>
<polygon fill="blue" stroke="black" points="390.15,-92.75 379.71,-94.54 388.98,-99.66 390.15,-92.75"/>
</g>
<!-- pelican_utils&#45;&gt;pelican_readers -->
<g id="edge26" class="edge">
<title>pelican_utils&#45;&gt;pelican_readers</title><style>.edge>path:hover{stroke-width:8}</style>
<path fill="none" stroke="black" d="M369.05,-254.98C357.59,-246.16 333.69,-219.31 316.14,-198.92"/>
<polygon fill="blue" stroke="black" points="318.69,-196.52 309.53,-191.2 313.38,-201.07 318.69,-196.52"/>
</g>
<!-- pelican_utils&#45;&gt;pelican_tools_pelican_import -->
<g id="edge27" class="edge">
<title>pelican_utils&#45;&gt;pelican_tools_pelican_import</title><style>.edge>path:hover{stroke-width:8}</style>
<path fill="none" stroke="black" d="M422.75,-309.69C405.8,-291.89 380.22,-265.58 369.05,-256.98"/>
<path fill="none" stroke="black" d="M369.05,-254.98C360.07,-248.07 359.89,-243.6 350.05,-237.98 326.16,-224.36 261.26,-204.82 211.41,-190.92"/>
<polygon fill="blue" stroke="black" points="212.23,-187.51 201.66,-188.22 210.36,-194.26 212.23,-187.51"/>
</g>
<!-- pelican_utils&#45;&gt;pelican_urlwrappers -->
<g id="edge28" class="edge">
<title>pelican_utils&#45;&gt;pelican_urlwrappers</title><style>.edge>path:hover{stroke-width:8}</style>
<path fill="none" stroke="black" d="M406.02,-309.86C387.97,-300.49 365.4,-288.8 346.1,-278.79"/>
<polygon fill="blue" stroke="black" points="347.69,-275.67 337.2,-274.17 344.47,-281.88 347.69,-275.67"/>
</g>
<!-- pelican_utils&#45;&gt;pelican_writers -->
<g id="edge29" class="edge">
<title>pelican_utils&#45;&gt;pelican_writers</title><style>.edge>path:hover{stroke-width:8}</style>
<path fill="none" stroke="black" d="M477.09,-310.75C503.89,-299.31 539.58,-284.07 566.13,-272.74"/>
<polygon fill="blue" stroke="black" points="567.64,-275.9 575.46,-268.76 564.89,-269.47 567.64,-275.9"/>
</g>
<!-- pelican_writers&#45;&gt;pelican -->
<g id="edge30" class="edge">
<title>pelican_writers&#45;&gt;pelican</title><style>.edge>path:hover{stroke-width:8}</style>
<path fill="none" stroke="black" d="M587.57,-237.7C574.57,-222.17 556.62,-198.15 547.05,-173.99"/>
</g>
</g>
</svg>
